# xmcd
#
# Track frame offsets: 
#        150
#        15243
#        31520
#        44820
#        58880
#        74533
#        94366
#        113436
#        129445
#        147029
#        165660
#        178152
#        190220
#        205818
#        222033
#        238372
#        252008
#        270582
#        289209
#
# Disc length: 4084 seconds
#
# Revision: 0
# Processed by: cddbd v1.5.2PL0 Copyright (c) Steve Scherf et al.
# Submitted via: ExactAudioCopyFreeDBPlugin 1.0
#
DISCID=180ff213
DTITLE=Various Artist - Hit Country - Duets
DYEAR=2015
DGENRE=Country
TTITLE0=Jasmine Rae feat. Kellie Pickler - Bad Boys Get Me Good
TTITLE1=Troy Cassar-Daley feat. the McClymonts - Ain't Gonna Change F
TTITLE1=or You
TTITLE2=Lee Kernaghan feat. Dierks Bentley - Scars
TTITLE3=Sara Storer feat. John Williamson - Raining On TPlains
TTITLE4=Melinda Schneider and Beccy Cole - 9 to 5
TTITLE5=The Viper Creek Band feat. Erica Sunshine Lee - You Saved Me
TTITLE6=Christina Aguilera feat. Blake Shelton - Just A Fool
TTITLE7=Adam Eckersley Band - Give Her The World
TTITLE8=Ashley Monroe - I Don't Want To
TTITLE9=Luke O'Shea and Dianna Corcoran - New England Sky
TTITLE10=Johnny Cash with June Carter Cash - Jackson
TTITLE11=Travis Tritt Duet with Marty Stuart - The Whiskey Ain't Work
TTITLE11=in'
TTITLE12=Darren Colston feat. Victoria Baillie - Will You Stay
TTITLE13=Dozzi feat. Drew McAlister - I Need You Tonight
TTITLE14=Jayne Denham feat. Shannon Noll - Beyond These City Lights
TTITLE15=Tim Chaisson feat. Serena Ryder - Beat This Heart
TTITLE16=Catherine Britt feat. Tim Rogers - Troubled Man
TTITLE17=Jared Porter feat. Kaylee Bell - Pieces
TTITLE18=Tanya Self and Adam Harvey - Drive Away
EXTD=
EXTT0=
EXTT1=
EXTT2=
EXTT3=
EXTT4=
EXTT5=
EXTT6=
EXTT7=
EXTT8=
EXTT9=
EXTT10=
EXTT11=
EXTT12=
EXTT13=
EXTT14=
EXTT15=
EXTT16=
EXTT17=
EXTT18=
PLAYORDER=
